# xmcd CD database file
# Copyright (C) 1995-1998 Ti Kan
#
# Track frame offsets:
#	165
#	21511
#	44899
#	73840
#	91030
#	115009
#	145518
#	166918
#	190126
#	218145
#
# Disc length: 3491 seconds
#
# Revision: 1
# Processed by: cddbd v1.4b42PL1 Copyright (c) Steve Scherf et al.
# Submitted via: CDex 1.30
#
DISCID=8b0da10a
DTITLE=Lamont Cranston - Lamont Live!
DYEAR=2001
DGENRE=Blues
TTITLE0=Ridin' With Daddy
TTITLE1=Hoodoo Man
TTITLE2=Roll With Me
TTITLE3=What A Party
TTITLE4=I Don't Wanna Know
TTITLE5=Come On In This House
TTITLE6=I Couldn't Put You Down
TTITLE7=She's Murder
TTITLE8=Five Long Years
TTITLE9=Lickin' Stick
EXTD=\nYEAR: 2001  ID3G:   0
EXTT0=
EXTT1=
EXTT2=
EXTT3=
EXTT4=
EXTT5=
EXTT6=
EXTT7=
EXTT8=
EXTT9=
PLAYORDER=
